<mxfile host="drawio-plugin" modified="2023-09-29T23:49:04.091Z" agent="5.0 (Windows NT 10.0; Win64; x64) AppleWebKit/537.36 (KHTML, like Gecko) Chrome/111.0.0.0 Safari/537.36" etag="GkBixurRARWQZibztWlR" version="20.5.3" type="embed"><diagram name="Страница — 1" id="NzLEcI9jsA0-uQWPk-tp"><mxGraphModel dx="14282" dy="11140" grid="1" gridSize="10" guides="1" tooltips="1" connect="1" arrows="1" fold="1" page="1" pageScale="1" pageWidth="1654" pageHeight="1169" math="0" shadow="0"><root><mxCell id="0"/><mxCell id="1" parent="0"/><mxCell id="5f0f6vWFJsmeR2NClkAe-92" value="" style="endArrow=classic;startArrow=classic;html=1;rounded=0;movable=0;resizable=0;rotatable=0;deletable=0;editable=0;locked=0;connectable=0;entryX=0;entryY=1;entryDx=0;entryDy=0;exitX=0.855;exitY=0;exitDx=0;exitDy=4.35;exitPerimeter=0;" parent="1" source="5f0f6vWFJsmeR2NClkAe-27" target="VxuYbRXNfP8Oym_CiK6y-4" edge="1"><mxGeometry width="50" height="50" relative="1" as="geometry"><mxPoint x="-4830" y="570" as="sourcePoint"/><mxPoint x="-4770" y="520" as="targetPoint"/></mxGeometry></mxCell><mxCell id="5f0f6vWFJsmeR2NClkAe-93" value="" style="endArrow=none;startArrow=classic;html=1;rounded=0;movable=0;resizable=0;rotatable=0;deletable=0;editable=0;locked=0;connectable=0;endFill=0;exitX=1;exitY=0;exitDx=0;exitDy=0;entryX=0.145;entryY=1;entryDx=0;entryDy=-4.35;entryPerimeter=0;" parent="1" source="VxuYbRXNfP8Oym_CiK6y-4" target="5f0f6vWFJsmeR2NClkAe-39" edge="1"><mxGeometry width="50" height="50" relative="1" as="geometry"><mxPoint x="-4640" y="440" as="sourcePoint"/><mxPoint x="-4630" y="390" as="targetPoint"/></mxGeometry></mxCell><mxCell id="5f0f6vWFJsmeR2NClkAe-94" value="" style="endArrow=classic;startArrow=classic;html=1;rounded=0;movable=0;resizable=0;rotatable=0;deletable=0;editable=0;locked=0;connectable=0;exitX=0;exitY=1;exitDx=0;exitDy=0;entryX=0.855;entryY=0;entryDx=0;entryDy=4.35;entryPerimeter=0;" parent="1" source="5f0f6vWFJsmeR2NClkAe-6" target="5f0f6vWFJsmeR2NClkAe-36" edge="1"><mxGeometry width="50" height="50" relative="1" as="geometry"><mxPoint x="-4570" y="530" as="sourcePoint"/><mxPoint x="-4600" y="560" as="targetPoint"/></mxGeometry></mxCell><mxCell id="5f0f6vWFJsmeR2NClkAe-95" value="" style="endArrow=classic;startArrow=classic;html=1;rounded=0;entryX=0;entryY=0;entryDx=0;entryDy=0;movable=0;resizable=0;rotatable=0;deletable=0;editable=0;locked=0;connectable=0;exitX=0.855;exitY=1;exitDx=0;exitDy=-4.35;exitPerimeter=0;" parent="1" source="5f0f6vWFJsmeR2NClkAe-39" target="5f0f6vWFJsmeR2NClkAe-6" edge="1"><mxGeometry width="50" height="50" relative="1" as="geometry"><mxPoint x="-4590" y="390" as="sourcePoint"/><mxPoint x="-4665.01" y="440" as="targetPoint"/></mxGeometry></mxCell><mxCell id="5f0f6vWFJsmeR2NClkAe-98" value="" style="endArrow=classic;startArrow=classic;html=1;rounded=0;movable=0;resizable=0;rotatable=0;deletable=0;editable=0;locked=0;connectable=0;entryX=0;entryY=0;entryDx=0;entryDy=0;exitX=0.855;exitY=1;exitDx=0;exitDy=-4.35;exitPerimeter=0;" parent="1" source="5f0f6vWFJsmeR2NClkAe-45" target="5f0f6vWFJsmeR2NClkAe-9" edge="1"><mxGeometry width="50" height="50" relative="1" as="geometry"><mxPoint x="-4170" y="410" as="sourcePoint"/><mxPoint x="-4140" y="450" as="targetPoint"/></mxGeometry></mxCell><mxCell id="5f0f6vWFJsmeR2NClkAe-99" value="" style="endArrow=classic;startArrow=none;html=1;rounded=0;movable=0;resizable=0;rotatable=0;deletable=0;editable=0;locked=0;connectable=0;startFill=0;entryX=0;entryY=1;entryDx=0;entryDy=0;exitX=0.855;exitY=0;exitDx=0;exitDy=4.35;exitPerimeter=0;" parent="1" source="5f0f6vWFJsmeR2NClkAe-67" target="5f0f6vWFJsmeR2NClkAe-9" edge="1"><mxGeometry width="50" height="50" relative="1" as="geometry"><mxPoint x="-4160" y="560" as="sourcePoint"/><mxPoint x="-4130" y="530" as="targetPoint"/></mxGeometry></mxCell><mxCell id="5f0f6vWFJsmeR2NClkAe-106" value="" style="endArrow=classic;startArrow=none;html=1;rounded=0;movable=0;resizable=0;rotatable=0;deletable=0;editable=0;locked=0;connectable=0;startFill=0;exitX=0.855;exitY=0;exitDx=0;exitDy=4.35;exitPerimeter=0;entryX=0;entryY=1;entryDx=0;entryDy=0;" parent="1" source="5f0f6vWFJsmeR2NClkAe-79" target="5f0f6vWFJsmeR2NClkAe-15" edge="1"><mxGeometry width="50" height="50" relative="1" as="geometry"><mxPoint x="-4360" y="530" as="sourcePoint"/><mxPoint x="-4360" y="530" as="targetPoint"/></mxGeometry></mxCell><mxCell id="5f0f6vWFJsmeR2NClkAe-91" value="" style="endArrow=none;startArrow=classic;html=1;rounded=0;movable=0;resizable=0;rotatable=0;deletable=0;editable=0;locked=0;connectable=0;endFill=0;exitX=1;exitY=1;exitDx=0;exitDy=0;entryX=0.145;entryY=0;entryDx=0;entryDy=4.35;entryPerimeter=0;" parent="1" source="VxuYbRXNfP8Oym_CiK6y-4" target="5f0f6vWFJsmeR2NClkAe-36" edge="1"><mxGeometry width="50" height="50" relative="1" as="geometry"><mxPoint x="-4685" y="530" as="sourcePoint"/><mxPoint x="-4660" y="560" as="targetPoint"/></mxGeometry></mxCell><mxCell id="5f0f6vWFJsmeR2NClkAe-109" value="" style="endArrow=classic;startArrow=none;html=1;rounded=0;movable=0;resizable=0;rotatable=0;deletable=0;editable=0;locked=0;connectable=0;startFill=0;exitX=1;exitY=0.5;exitDx=0;exitDy=0;exitPerimeter=0;entryX=0;entryY=0.5;entryDx=0;entryDy=0;" parent="1" source="5f0f6vWFJsmeR2NClkAe-39" target="5f0f6vWFJsmeR2NClkAe-15" edge="1"><mxGeometry width="50" height="50" relative="1" as="geometry"><mxPoint x="-4570" y="340" as="sourcePoint"/><mxPoint x="-4360" y="480" as="targetPoint"/><Array as="points"><mxPoint x="-4400" y="355"/><mxPoint x="-4400" y="480"/></Array></mxGeometry></mxCell><mxCell id="5f0f6vWFJsmeR2NClkAe-117" value="" style="endArrow=none;startArrow=classic;html=1;rounded=0;movable=0;resizable=0;rotatable=0;deletable=0;editable=0;locked=0;connectable=0;endFill=0;exitX=1;exitY=0;exitDx=0;exitDy=0;entryX=0.145;entryY=1;entryDx=0;entryDy=-4.35;entryPerimeter=0;" parent="1" source="5f0f6vWFJsmeR2NClkAe-18" target="5f0f6vWFJsmeR2NClkAe-76" edge="1"><mxGeometry width="50" height="50" relative="1" as="geometry"><mxPoint x="-3320" y="460" as="sourcePoint"/><mxPoint x="-3330" y="410" as="targetPoint"/></mxGeometry></mxCell><mxCell id="5f0f6vWFJsmeR2NClkAe-121" value="" style="endArrow=classic;startArrow=classic;html=1;rounded=0;movable=0;resizable=0;rotatable=0;deletable=0;editable=0;locked=0;connectable=0;exitX=0.855;exitY=1;exitDx=0;exitDy=-4.35;exitPerimeter=0;entryX=0;entryY=0;entryDx=0;entryDy=0;" parent="1" source="5f0f6vWFJsmeR2NClkAe-76" target="5f0f6vWFJsmeR2NClkAe-21" edge="1"><mxGeometry width="50" height="50" relative="1" as="geometry"><mxPoint x="-3280" y="410" as="sourcePoint"/><mxPoint x="-3250" y="450" as="targetPoint"/></mxGeometry></mxCell><mxCell id="5f0f6vWFJsmeR2NClkAe-122" value="" style="endArrow=classic;startArrow=classic;html=1;rounded=0;exitX=0.917;exitY=0.06;exitDx=0;exitDy=0;exitPerimeter=0;entryX=0.067;entryY=1.018;entryDx=0;entryDy=0;entryPerimeter=0;movable=0;resizable=0;rotatable=0;deletable=0;editable=0;locked=0;connectable=0;" parent="1" source="5f0f6vWFJsmeR2NClkAe-73" target="5f0f6vWFJsmeR2NClkAe-21" edge="1"><mxGeometry width="50" height="50" relative="1" as="geometry"><mxPoint x="-3270" y="550" as="sourcePoint"/><mxPoint x="-3240" y="530" as="targetPoint"/></mxGeometry></mxCell><mxCell id="5f0f6vWFJsmeR2NClkAe-123" value="" style="endArrow=classic;startArrow=classic;html=1;rounded=0;entryX=0.5;entryY=0;entryDx=0;entryDy=0;entryPerimeter=0;exitX=0.5;exitY=1;exitDx=0;exitDy=0;exitPerimeter=0;movable=0;resizable=0;rotatable=0;deletable=0;editable=0;locked=0;connectable=0;" parent="1" source="5f0f6vWFJsmeR2NClkAe-54" target="5f0f6vWFJsmeR2NClkAe-51" edge="1"><mxGeometry width="50" height="50" relative="1" as="geometry"><mxPoint x="-3980" y="250" as="sourcePoint"/><mxPoint x="-4000" y="290" as="targetPoint"/></mxGeometry></mxCell><mxCell id="5f0f6vWFJsmeR2NClkAe-127" value="" style="endArrow=classic;startArrow=classic;html=1;rounded=0;entryX=0.929;entryY=1.013;entryDx=0;entryDy=0;entryPerimeter=0;exitX=0.5;exitY=1;exitDx=0;exitDy=0;exitPerimeter=0;movable=0;resizable=0;rotatable=0;deletable=0;editable=0;locked=0;connectable=0;" parent="1" edge="1"><mxGeometry width="50" height="50" relative="1" as="geometry"><mxPoint x="-4620" y="239" as="sourcePoint"/><mxPoint x="-4619" y="310" as="targetPoint"/></mxGeometry></mxCell><mxCell id="5f0f6vWFJsmeR2NClkAe-71" value="&lt;font style=&quot;font-size: 18px;&quot;&gt;Protective Equipment&lt;br&gt;DB&lt;/font&gt;" style="text;html=1;strokeColor=none;fillColor=none;align=center;verticalAlign=middle;whiteSpace=wrap;rounded=0;movable=0;resizable=0;rotatable=0;deletable=0;editable=0;locked=0;connectable=0;container=0;" parent="1" vertex="1"><mxGeometry x="-3680" y="270" width="130" height="70" as="geometry"/></mxCell><mxCell id="5f0f6vWFJsmeR2NClkAe-135" value="" style="endArrow=classic;startArrow=classic;html=1;rounded=0;movable=0;resizable=0;rotatable=0;deletable=0;editable=0;locked=0;connectable=0;entryX=0;entryY=0;entryDx=0;entryDy=0;exitX=0.778;exitY=0.967;exitDx=0;exitDy=0;exitPerimeter=0;" parent="1" source="5f0f6vWFJsmeR2NClkAe-112" target="5f0f6vWFJsmeR2NClkAe-18" edge="1"><mxGeometry width="50" height="50" relative="1" as="geometry"><mxPoint x="-3520" y="400" as="sourcePoint"/><mxPoint x="-3480" y="440" as="targetPoint"/></mxGeometry></mxCell><mxCell id="5f0f6vWFJsmeR2NClkAe-136" value="" style="endArrow=classic;startArrow=classic;html=1;rounded=0;exitX=0.5;exitY=1;exitDx=0;exitDy=0;exitPerimeter=0;movable=0;resizable=0;rotatable=0;deletable=0;editable=0;locked=0;connectable=0;" parent="1" source="5f0f6vWFJsmeR2NClkAe-61" edge="1"><mxGeometry width="50" height="50" relative="1" as="geometry"><mxPoint x="-3580" y="270" as="sourcePoint"/><mxPoint x="-3540" y="310" as="targetPoint"/></mxGeometry></mxCell><mxCell id="IsAHPSJvlg0nilzHLIV1-1" value="" style="endArrow=classic;html=1;rounded=0;entryX=1;entryY=0.5;entryDx=0;entryDy=0;exitX=0.5;exitY=0;exitDx=0;exitDy=0;exitPerimeter=0;movable=0;resizable=0;rotatable=0;deletable=0;editable=0;connectable=0;" parent="1" source="5f0f6vWFJsmeR2NClkAe-76" target="5f0f6vWFJsmeR2NClkAe-6" edge="1"><mxGeometry width="50" height="50" relative="1" as="geometry"><mxPoint x="-4410" y="420" as="sourcePoint"/><mxPoint x="-4360" y="370" as="targetPoint"/><Array as="points"><mxPoint x="-3310" y="60"/><mxPoint x="-4440" y="70"/><mxPoint x="-4440" y="480"/></Array></mxGeometry></mxCell><mxCell id="5f0f6vWFJsmeR2NClkAe-97" value="" style="endArrow=classic;startArrow=classic;html=1;rounded=0;movable=0;resizable=0;rotatable=0;deletable=0;editable=0;locked=0;connectable=0;exitX=1;exitY=1;exitDx=0;exitDy=0;entryX=0.145;entryY=0;entryDx=0;entryDy=4.35;entryPerimeter=0;" parent="1" source="5f0f6vWFJsmeR2NClkAe-6" target="5f0f6vWFJsmeR2NClkAe-79" edge="1"><mxGeometry width="50" height="50" relative="1" as="geometry"><mxPoint x="-4460" y="540" as="sourcePoint"/><mxPoint x="-4430" y="570" as="targetPoint"/></mxGeometry></mxCell><mxCell id="5f0f6vWFJsmeR2NClkAe-103" value="" style="endArrow=classic;startArrow=classic;html=1;rounded=0;movable=0;resizable=0;rotatable=0;deletable=0;editable=0;locked=0;connectable=0;entryX=0;entryY=0;entryDx=0;entryDy=0;exitX=0.855;exitY=1;exitDx=0;exitDy=-4.35;exitPerimeter=0;" parent="1" source="5f0f6vWFJsmeR2NClkAe-58" target="5f0f6vWFJsmeR2NClkAe-12" edge="1"><mxGeometry width="50" height="50" relative="1" as="geometry"><mxPoint x="-3740" y="410" as="sourcePoint"/><mxPoint x="-3710" y="450" as="targetPoint"/></mxGeometry></mxCell><mxCell id="5f0f6vWFJsmeR2NClkAe-104" value="" style="endArrow=classic;startArrow=classic;html=1;rounded=0;movable=0;resizable=0;rotatable=0;deletable=0;editable=0;locked=0;connectable=0;entryX=0;entryY=1;entryDx=0;entryDy=0;exitX=0.855;exitY=0;exitDx=0;exitDy=4.35;exitPerimeter=0;" parent="1" source="5f0f6vWFJsmeR2NClkAe-64" target="5f0f6vWFJsmeR2NClkAe-12" edge="1"><mxGeometry width="50" height="50" relative="1" as="geometry"><mxPoint x="-3730" y="560" as="sourcePoint"/><mxPoint x="-3700" y="530" as="targetPoint"/></mxGeometry></mxCell><mxCell id="TgcfqO1hFb4Bv1hDBOxh-4" value="" style="endArrow=none;startArrow=classic;html=1;rounded=0;movable=0;resizable=0;rotatable=0;deletable=0;editable=0;locked=0;connectable=0;endFill=0;exitX=0.303;exitY=0.005;exitDx=0;exitDy=0;entryX=0.145;entryY=0;entryDx=0;entryDy=4.35;entryPerimeter=0;exitPerimeter=0;" parent="1" edge="1"><mxGeometry width="50" height="50" relative="1" as="geometry"><mxPoint x="-3385" y="521" as="sourcePoint"/><mxPoint x="-3331" y="564" as="targetPoint"/></mxGeometry></mxCell><mxCell id="5f0f6vWFJsmeR2NClkAe-32" value="&lt;font style=&quot;font-size: 18px;&quot;&gt;Compensation Device&lt;br&gt;DB&lt;/font&gt;" style="text;html=1;strokeColor=none;fillColor=none;align=center;verticalAlign=middle;whiteSpace=wrap;rounded=0;movable=0;resizable=0;rotatable=0;deletable=0;editable=0;locked=0;connectable=0;container=0;" parent="1" vertex="1"><mxGeometry x="-4895" y="680" width="130" height="40" as="geometry"/></mxCell><mxCell id="5f0f6vWFJsmeR2NClkAe-80" value="&lt;font style=&quot;font-size: 18px;&quot;&gt;Transformer Selection &lt;br&gt;DB&lt;/font&gt;" style="text;html=1;strokeColor=none;fillColor=none;align=center;verticalAlign=middle;whiteSpace=wrap;rounded=0;movable=0;resizable=0;rotatable=0;deletable=0;editable=0;locked=0;connectable=0;container=0;" parent="1" vertex="1"><mxGeometry x="-4465" y="680" width="130" height="40" as="geometry"/></mxCell><mxCell id="5f0f6vWFJsmeR2NClkAe-68" value="&lt;font style=&quot;font-size: 18px;&quot;&gt;Power Transformers&amp;nbsp; DB&lt;/font&gt;" style="text;html=1;strokeColor=none;fillColor=none;align=center;verticalAlign=middle;whiteSpace=wrap;rounded=0;movable=0;resizable=0;rotatable=0;deletable=0;editable=0;locked=0;connectable=0;container=0;" parent="1" vertex="1"><mxGeometry x="-4250" y="665" width="130" height="70" as="geometry"/></mxCell><mxCell id="5f0f6vWFJsmeR2NClkAe-49" value="&lt;font style=&quot;font-size: 18px;&quot;&gt;High Volt Cables&lt;br&gt;DB&lt;/font&gt;" style="text;html=1;strokeColor=none;fillColor=none;align=center;verticalAlign=middle;whiteSpace=wrap;rounded=0;movable=0;resizable=0;rotatable=0;deletable=0;editable=0;locked=0;connectable=0;container=0;" parent="1" vertex="1"><mxGeometry x="-4035" y="670" width="130" height="60" as="geometry"/></mxCell><mxCell id="5f0f6vWFJsmeR2NClkAe-65" value="&lt;font style=&quot;font-size: 18px;&quot;&gt;Luminaire Selection&lt;br&gt;DB&lt;/font&gt;" style="text;html=1;strokeColor=none;fillColor=none;align=center;verticalAlign=middle;whiteSpace=wrap;rounded=0;movable=0;resizable=0;rotatable=0;deletable=0;editable=0;locked=0;connectable=0;container=0;" parent="1" vertex="1"><mxGeometry x="-3815" y="665" width="130" height="70" as="geometry"/></mxCell><mxCell id="5f0f6vWFJsmeR2NClkAe-74" value="&lt;font style=&quot;font-size: 18px;&quot;&gt;Protective Equipment Selection &lt;br&gt;DB&lt;/font&gt;" style="text;html=1;strokeColor=none;fillColor=none;align=center;verticalAlign=middle;whiteSpace=wrap;rounded=0;movable=0;resizable=0;rotatable=0;deletable=0;editable=0;locked=0;connectable=0;container=0;" parent="1" vertex="1"><mxGeometry x="-3375" y="660" width="130" height="90" as="geometry"/></mxCell><mxCell id="5f0f6vWFJsmeR2NClkAe-67" value="" style="shape=cylinder3;whiteSpace=wrap;html=1;boundedLbl=1;backgroundOutline=1;size=15;movable=0;resizable=0;rotatable=0;deletable=0;editable=0;locked=0;connectable=0;container=0;" parent="1" vertex="1"><mxGeometry x="-4220" y="560" width="60" height="90" as="geometry"/></mxCell><mxCell id="5f0f6vWFJsmeR2NClkAe-48" value="" style="shape=cylinder3;whiteSpace=wrap;html=1;boundedLbl=1;backgroundOutline=1;size=15;movable=0;resizable=0;rotatable=0;deletable=0;editable=0;locked=0;connectable=0;container=0;" parent="1" vertex="1"><mxGeometry x="-4000" y="560" width="60" height="90" as="geometry"/></mxCell><mxCell id="5f0f6vWFJsmeR2NClkAe-9" value="" style="whiteSpace=wrap;html=1;aspect=fixed;movable=0;resizable=0;rotatable=0;deletable=0;editable=0;locked=0;connectable=0;container=0;" parent="1" vertex="1"><mxGeometry x="-4125" y="440" width="80" height="80" as="geometry"/></mxCell><mxCell id="5f0f6vWFJsmeR2NClkAe-10" value="&lt;font style=&quot;font-size: 18px;&quot;&gt;High volt&amp;nbsp;&lt;br&gt;cables&lt;br&gt;&lt;/font&gt;" style="text;html=1;strokeColor=none;fillColor=none;align=center;verticalAlign=middle;whiteSpace=wrap;rounded=0;movable=0;resizable=0;rotatable=0;deletable=0;editable=0;locked=0;connectable=0;container=0;" parent="1" vertex="1"><mxGeometry x="-4150" y="390" width="130" height="40" as="geometry"/></mxCell><mxCell id="JZUMmOxTGDY30PKVFd1s-3" value="" style="endArrow=classic;startArrow=classic;html=1;rounded=0;movable=0;resizable=0;rotatable=0;deletable=0;editable=0;locked=0;connectable=0;exitX=1;exitY=1;exitDx=0;exitDy=0;entryX=0.145;entryY=0;entryDx=0;entryDy=4.35;entryPerimeter=0;" parent="1" source="5f0f6vWFJsmeR2NClkAe-9" edge="1"><mxGeometry width="50" height="50" relative="1" as="geometry"><mxPoint x="-4042" y="524" as="sourcePoint"/><mxPoint x="-3991" y="564" as="targetPoint"/></mxGeometry></mxCell><mxCell id="VxuYbRXNfP8Oym_CiK6y-4" value="" style="whiteSpace=wrap;html=1;aspect=fixed;movable=0;resizable=0;rotatable=0;deletable=0;editable=0;locked=0;connectable=0;container=0;" parent="1" vertex="1"><mxGeometry x="-4765" y="440" width="80" height="80" as="geometry"/></mxCell><mxCell id="5f0f6vWFJsmeR2NClkAe-1" value="&lt;font style=&quot;font-size: 18px;&quot;&gt;Compensation device&lt;/font&gt;" style="text;html=1;strokeColor=none;fillColor=none;align=center;verticalAlign=middle;whiteSpace=wrap;rounded=0;movable=0;resizable=0;rotatable=0;deletable=0;editable=0;locked=0;connectable=0;container=0;" parent="1" vertex="1"><mxGeometry x="-4790" y="390" width="130" height="40" as="geometry"/></mxCell><mxCell id="5f0f6vWFJsmeR2NClkAe-6" value="" style="whiteSpace=wrap;html=1;aspect=fixed;movable=0;resizable=0;rotatable=0;deletable=0;editable=0;locked=0;connectable=0;container=0;" parent="1" vertex="1"><mxGeometry x="-4555" y="440" width="80" height="80" as="geometry"/></mxCell><mxCell id="5f0f6vWFJsmeR2NClkAe-7" value="&lt;font style=&quot;font-size: 18px;&quot;&gt;Full&lt;br&gt;information&lt;br&gt;&lt;/font&gt;" style="text;html=1;strokeColor=none;fillColor=none;align=center;verticalAlign=middle;whiteSpace=wrap;rounded=0;movable=0;resizable=0;rotatable=0;deletable=0;editable=0;locked=0;connectable=0;container=0;" parent="1" vertex="1"><mxGeometry x="-4555" y="390" width="100" height="40" as="geometry"/></mxCell><mxCell id="5f0f6vWFJsmeR2NClkAe-12" value="" style="whiteSpace=wrap;html=1;aspect=fixed;movable=0;resizable=0;rotatable=0;deletable=0;editable=0;locked=0;connectable=0;container=0;" parent="1" vertex="1"><mxGeometry x="-3695" y="440" width="80" height="80" as="geometry"/></mxCell><mxCell id="5f0f6vWFJsmeR2NClkAe-13" value="&lt;font style=&quot;font-size: 18px;&quot;&gt;Lighting&lt;br&gt;information&lt;br&gt;&lt;/font&gt;" style="text;html=1;strokeColor=none;fillColor=none;align=center;verticalAlign=middle;whiteSpace=wrap;rounded=0;movable=0;resizable=0;rotatable=0;deletable=0;editable=0;locked=0;connectable=0;container=0;" parent="1" vertex="1"><mxGeometry x="-3710" y="390" width="130" height="40" as="geometry"/></mxCell><mxCell id="5f0f6vWFJsmeR2NClkAe-15" value="" style="whiteSpace=wrap;html=1;aspect=fixed;movable=0;resizable=0;rotatable=0;deletable=0;editable=0;locked=0;connectable=0;container=0;" parent="1" vertex="1"><mxGeometry x="-4335" y="440" width="80" height="80" as="geometry"/></mxCell><mxCell id="5f0f6vWFJsmeR2NClkAe-16" value="&lt;span style=&quot;font-size: 18px;&quot;&gt;Power&lt;br&gt;transformers&lt;br&gt;&lt;/span&gt;" style="text;html=1;strokeColor=none;fillColor=none;align=center;verticalAlign=middle;whiteSpace=wrap;rounded=0;movable=0;resizable=0;rotatable=0;deletable=0;editable=0;locked=0;connectable=0;container=0;" parent="1" vertex="1"><mxGeometry x="-4360" y="390" width="130" height="40" as="geometry"/></mxCell><mxCell id="5f0f6vWFJsmeR2NClkAe-18" value="" style="whiteSpace=wrap;html=1;aspect=fixed;movable=0;resizable=0;rotatable=0;deletable=0;editable=0;locked=0;connectable=0;container=0;" parent="1" vertex="1"><mxGeometry x="-3465" y="440" width="80" height="80" as="geometry"/></mxCell><mxCell id="5f0f6vWFJsmeR2NClkAe-19" value="&lt;font style=&quot;font-size: 18px;&quot;&gt;Protective&lt;br&gt;equipment&lt;br&gt;&lt;/font&gt;" style="text;html=1;strokeColor=none;fillColor=none;align=center;verticalAlign=middle;whiteSpace=wrap;rounded=0;movable=0;resizable=0;rotatable=0;deletable=0;editable=0;locked=0;connectable=0;container=0;" parent="1" vertex="1"><mxGeometry x="-3490" y="390" width="130" height="40" as="geometry"/></mxCell><mxCell id="5f0f6vWFJsmeR2NClkAe-21" value="" style="whiteSpace=wrap;html=1;aspect=fixed;movable=0;resizable=0;rotatable=0;deletable=0;editable=0;locked=0;connectable=0;container=0;" parent="1" vertex="1"><mxGeometry x="-3235" y="440" width="80" height="80" as="geometry"/></mxCell><mxCell id="5f0f6vWFJsmeR2NClkAe-22" value="&lt;font style=&quot;font-size: 18px;&quot;&gt;Start&lt;br&gt;information&lt;br&gt;&lt;/font&gt;" style="text;html=1;strokeColor=none;fillColor=none;align=center;verticalAlign=middle;whiteSpace=wrap;rounded=0;movable=0;resizable=0;rotatable=0;deletable=0;editable=0;locked=0;connectable=0;container=0;" parent="1" vertex="1"><mxGeometry x="-3260" y="390" width="130" height="40" as="geometry"/></mxCell><mxCell id="5f0f6vWFJsmeR2NClkAe-36" value="" style="shape=cylinder3;whiteSpace=wrap;html=1;boundedLbl=1;backgroundOutline=1;size=15;movable=0;resizable=0;rotatable=0;deletable=0;editable=0;locked=0;connectable=0;container=0;" parent="1" vertex="1"><mxGeometry x="-4655" y="570" width="60" height="90" as="geometry"/></mxCell><mxCell id="5f0f6vWFJsmeR2NClkAe-37" value="&lt;font style=&quot;font-size: 18px;&quot;&gt;Compensation&lt;br&gt;Device Selection&lt;br&gt;DB&lt;/font&gt;" style="text;html=1;strokeColor=none;fillColor=none;align=center;verticalAlign=middle;whiteSpace=wrap;rounded=0;movable=0;resizable=0;rotatable=0;deletable=0;editable=0;locked=0;connectable=0;container=0;" parent="1" vertex="1"><mxGeometry x="-4690" y="670" width="130" height="95" as="geometry"/></mxCell><mxCell id="5f0f6vWFJsmeR2NClkAe-51" value="" style="shape=cylinder3;whiteSpace=wrap;html=1;boundedLbl=1;backgroundOutline=1;size=15;movable=0;resizable=0;rotatable=0;deletable=0;editable=0;locked=0;connectable=0;container=0;" parent="1" vertex="1"><mxGeometry x="-4010" y="310" width="60" height="90" as="geometry"/></mxCell><mxCell id="5f0f6vWFJsmeR2NClkAe-52" value="&lt;font style=&quot;font-size: 18px;&quot;&gt;High Volt Information &lt;br&gt;DB&lt;/font&gt;" style="text;html=1;strokeColor=none;fillColor=none;align=center;verticalAlign=middle;whiteSpace=wrap;rounded=0;movable=0;resizable=0;rotatable=0;deletable=0;editable=0;locked=0;connectable=0;container=0;" parent="1" vertex="1"><mxGeometry x="-4100" y="270" width="100" height="70" as="geometry"/></mxCell><mxCell id="5f0f6vWFJsmeR2NClkAe-54" value="" style="shape=cylinder3;whiteSpace=wrap;html=1;boundedLbl=1;backgroundOutline=1;size=15;movable=0;resizable=0;rotatable=0;deletable=0;editable=0;locked=0;connectable=0;container=0;" parent="1" vertex="1"><mxGeometry x="-4010" y="150" width="60" height="90" as="geometry"/></mxCell><mxCell id="5f0f6vWFJsmeR2NClkAe-55" value="&lt;font style=&quot;font-size: 18px;&quot;&gt;Inductive Impedance Areas &lt;br&gt;DB&lt;/font&gt;" style="text;html=1;strokeColor=none;fillColor=none;align=center;verticalAlign=middle;whiteSpace=wrap;rounded=0;movable=0;resizable=0;rotatable=0;deletable=0;editable=0;locked=0;connectable=0;container=0;" parent="1" vertex="1"><mxGeometry x="-4100" y="110" width="130" height="40" as="geometry"/></mxCell><mxCell id="5f0f6vWFJsmeR2NClkAe-58" value="" style="shape=cylinder3;whiteSpace=wrap;html=1;boundedLbl=1;backgroundOutline=1;size=15;movable=0;resizable=0;rotatable=0;deletable=0;editable=0;locked=0;connectable=0;container=0;" parent="1" vertex="1"><mxGeometry x="-3790" y="310" width="60" height="90" as="geometry"/></mxCell><mxCell id="5f0f6vWFJsmeR2NClkAe-59" value="&lt;font style=&quot;font-size: 18px;&quot;&gt;Light Information&lt;br&gt;DB&lt;/font&gt;" style="text;html=1;strokeColor=none;fillColor=none;align=center;verticalAlign=middle;whiteSpace=wrap;rounded=0;movable=0;resizable=0;rotatable=0;deletable=0;editable=0;locked=0;connectable=0;container=0;" parent="1" vertex="1"><mxGeometry x="-3900" y="270" width="130" height="70" as="geometry"/></mxCell><mxCell id="5f0f6vWFJsmeR2NClkAe-61" value="" style="shape=cylinder3;whiteSpace=wrap;html=1;boundedLbl=1;backgroundOutline=1;size=15;movable=0;resizable=0;rotatable=0;deletable=0;editable=0;locked=0;connectable=0;container=0;" parent="1" vertex="1"><mxGeometry x="-3570" y="150" width="60" height="90" as="geometry"/></mxCell><mxCell id="5f0f6vWFJsmeR2NClkAe-62" value="&lt;font style=&quot;font-size: 18px;&quot;&gt;Low Volt &lt;br&gt;Cables&lt;br&gt;DB&lt;/font&gt;" style="text;html=1;strokeColor=none;fillColor=none;align=center;verticalAlign=middle;whiteSpace=wrap;rounded=0;movable=0;resizable=0;rotatable=0;deletable=0;editable=0;locked=0;connectable=0;container=0;" parent="1" vertex="1"><mxGeometry x="-3660" y="110" width="130" height="40" as="geometry"/></mxCell><mxCell id="5f0f6vWFJsmeR2NClkAe-64" value="" style="shape=cylinder3;whiteSpace=wrap;html=1;boundedLbl=1;backgroundOutline=1;size=15;movable=0;resizable=0;rotatable=0;deletable=0;editable=0;locked=0;connectable=0;container=0;" parent="1" vertex="1"><mxGeometry x="-3780" y="560" width="60" height="90" as="geometry"/></mxCell><mxCell id="5f0f6vWFJsmeR2NClkAe-27" value="" style="shape=cylinder3;whiteSpace=wrap;html=1;boundedLbl=1;backgroundOutline=1;size=15;container=0;movable=0;resizable=0;rotatable=0;deletable=0;editable=0;locked=0;connectable=0;" parent="1" vertex="1"><mxGeometry x="-4860" y="570" width="60" height="90" as="geometry"/></mxCell><mxCell id="5f0f6vWFJsmeR2NClkAe-79" value="" style="shape=cylinder3;whiteSpace=wrap;html=1;boundedLbl=1;backgroundOutline=1;size=15;container=0;movable=0;resizable=0;rotatable=0;deletable=0;editable=0;locked=0;connectable=0;" parent="1" vertex="1"><mxGeometry x="-4430" y="570" width="60" height="90" as="geometry"/></mxCell><mxCell id="5f0f6vWFJsmeR2NClkAe-76" value="" style="shape=cylinder3;whiteSpace=wrap;html=1;boundedLbl=1;backgroundOutline=1;size=15;movable=0;resizable=0;rotatable=0;deletable=0;editable=0;locked=0;connectable=0;container=0;" parent="1" vertex="1"><mxGeometry x="-3340" y="310" width="60" height="90" as="geometry"/></mxCell><mxCell id="5f0f6vWFJsmeR2NClkAe-77" value="&lt;font style=&quot;font-size: 18px;&quot;&gt;Start Information&lt;br&gt;DB&lt;/font&gt;" style="text;html=1;strokeColor=none;fillColor=none;align=center;verticalAlign=middle;whiteSpace=wrap;rounded=0;movable=0;resizable=0;rotatable=0;deletable=0;editable=0;locked=0;connectable=0;container=0;" parent="1" vertex="1"><mxGeometry x="-3440" y="280" width="130" height="40" as="geometry"/></mxCell><mxCell id="5f0f6vWFJsmeR2NClkAe-45" value="" style="shape=cylinder3;whiteSpace=wrap;html=1;boundedLbl=1;backgroundOutline=1;size=15;movable=0;resizable=0;rotatable=0;deletable=0;editable=0;locked=0;connectable=0;container=0;" parent="1" vertex="1"><mxGeometry x="-4220" y="310" width="60" height="90" as="geometry"/></mxCell><mxCell id="5f0f6vWFJsmeR2NClkAe-46" value="&lt;font style=&quot;font-size: 18px;&quot;&gt;High Volt&lt;br&gt;Cable Selection&lt;br&gt;&amp;nbsp;DB&lt;/font&gt;" style="text;html=1;strokeColor=none;fillColor=none;align=center;verticalAlign=middle;whiteSpace=wrap;rounded=0;movable=0;resizable=0;rotatable=0;deletable=0;editable=0;locked=0;connectable=0;container=0;" parent="1" vertex="1"><mxGeometry x="-4350" y="270" width="130" height="70" as="geometry"/></mxCell><mxCell id="5f0f6vWFJsmeR2NClkAe-40" value="&lt;font style=&quot;font-size: 18px;&quot;&gt;Full&lt;br&gt;Information&lt;br&gt;DB&lt;/font&gt;" style="text;html=1;strokeColor=none;fillColor=none;align=center;verticalAlign=middle;whiteSpace=wrap;rounded=0;movable=0;resizable=0;rotatable=0;deletable=0;editable=0;locked=0;connectable=0;container=0;" parent="1" vertex="1"><mxGeometry x="-4770" y="270" width="130" height="75" as="geometry"/></mxCell><mxCell id="5f0f6vWFJsmeR2NClkAe-39" value="" style="shape=cylinder3;whiteSpace=wrap;html=1;boundedLbl=1;backgroundOutline=1;size=15;movable=0;resizable=0;rotatable=0;deletable=0;editable=0;locked=0;connectable=0;container=0;" parent="1" vertex="1"><mxGeometry x="-4650" y="310" width="60" height="90" as="geometry"/></mxCell><mxCell id="5f0f6vWFJsmeR2NClkAe-112" value="" style="shape=cylinder3;whiteSpace=wrap;html=1;boundedLbl=1;backgroundOutline=1;size=15;movable=0;resizable=0;rotatable=0;deletable=0;editable=0;locked=0;connectable=0;container=0;" parent="1" vertex="1"><mxGeometry x="-3570" y="310" width="60" height="90" as="geometry"/></mxCell><mxCell id="5f0f6vWFJsmeR2NClkAe-125" value="" style="shape=cylinder3;whiteSpace=wrap;html=1;boundedLbl=1;backgroundOutline=1;size=15;container=0;movable=0;resizable=0;rotatable=0;deletable=0;editable=0;locked=0;connectable=0;" parent="1" vertex="1"><mxGeometry x="-4650" y="150" width="60" height="90" as="geometry"/></mxCell><mxCell id="5f0f6vWFJsmeR2NClkAe-126" value="&lt;font style=&quot;font-size: 18px;&quot;&gt;Full-Start&lt;br&gt;Information&lt;br&gt;DB&lt;/font&gt;" style="text;html=1;strokeColor=none;fillColor=none;align=center;verticalAlign=middle;whiteSpace=wrap;rounded=0;movable=0;resizable=0;rotatable=0;deletable=0;editable=0;locked=0;connectable=0;container=0;" parent="1" vertex="1"><mxGeometry x="-4740" y="110" width="130" height="40" as="geometry"/></mxCell><mxCell id="5f0f6vWFJsmeR2NClkAe-73" value="" style="shape=cylinder3;whiteSpace=wrap;html=1;boundedLbl=1;backgroundOutline=1;size=15;movable=0;resizable=0;rotatable=0;deletable=0;editable=0;locked=0;connectable=0;container=0;" parent="1" vertex="1"><mxGeometry x="-3340" y="560" width="60" height="90" as="geometry"/></mxCell><mxCell id="JZUMmOxTGDY30PKVFd1s-5" value="" style="endArrow=classic;startArrow=classic;html=1;rounded=0;movable=0;resizable=0;rotatable=0;deletable=0;editable=0;locked=0;connectable=0;entryX=1;entryY=0;entryDx=0;entryDy=0;exitX=0.145;exitY=1;exitDx=0;exitDy=-4.35;exitPerimeter=0;" parent="1" source="5f0f6vWFJsmeR2NClkAe-51" target="5f0f6vWFJsmeR2NClkAe-9" edge="1"><mxGeometry width="50" height="50" relative="1" as="geometry"><mxPoint x="-4159" y="406" as="sourcePoint"/><mxPoint x="-4115" y="450" as="targetPoint"/></mxGeometry></mxCell><mxCell id="JZUMmOxTGDY30PKVFd1s-6" value="" style="endArrow=classic;startArrow=classic;html=1;rounded=0;movable=0;resizable=0;rotatable=0;deletable=0;editable=0;locked=0;connectable=0;exitX=1;exitY=1;exitDx=0;exitDy=0;entryX=0.145;entryY=0;entryDx=0;entryDy=4.35;entryPerimeter=0;" parent="1" source="5f0f6vWFJsmeR2NClkAe-15" target="5f0f6vWFJsmeR2NClkAe-67" edge="1"><mxGeometry width="50" height="50" relative="1" as="geometry"><mxPoint x="-4255" y="520" as="sourcePoint"/><mxPoint x="-4201" y="564" as="targetPoint"/></mxGeometry></mxCell></root></mxGraphModel></diagram></mxfile>